<?xml version="1.0" encoding="UTF-8" standalone="no"?>
<!-- Created with Inkscape (http://www.inkscape.org/) -->

<svg
   xmlns:dc="http://purl.org/dc/elements/1.1/"
   xmlns:cc="http://creativecommons.org/ns#"
   xmlns:rdf="http://www.w3.org/1999/02/22-rdf-syntax-ns#"
   xmlns:svg="http://www.w3.org/2000/svg"
   xmlns="http://www.w3.org/2000/svg"
   xmlns:sodipodi="http://sodipodi.sourceforge.net/DTD/sodipodi-0.dtd"
   xmlns:inkscape="http://www.inkscape.org/namespaces/inkscape"
   width="292.99625"
   height="292.29874"
   id="svg3069"
   version="1.1"
   inkscape:version="0.48.1 r9760"
   sodipodi:docname="hicolor_apps_scalable_im-skype.svg"
   inkscape:export-filename="/home/emilio/src/empathy-skype/data/icons/hicolor_apps_16x16_im-skype.png"
   inkscape:export-xdpi="4.9264669"
   inkscape:export-ydpi="4.9264669">
  <defs
     id="defs3071" />
  <sodipodi:namedview
     id="base"
     pagecolor="#ffffff"
     bordercolor="#666666"
     borderopacity="1.0"
     inkscape:pageopacity="0.0"
     inkscape:pageshadow="2"
     inkscape:zoom="1.4"
     inkscape:cx="228.64098"
     inkscape:cy="118.7963"
     inkscape:document-units="px"
     inkscape:current-layer="layer1"
     showgrid="false"
     fit-margin-top="0"
     fit-margin-left="0"
     fit-margin-right="0"
     fit-margin-bottom="0"
     inkscape:window-width="1280"
     inkscape:window-height="743"
     inkscape:window-x="0"
     inkscape:window-y="26"
     inkscape:window-maximized="1" />
  <metadata
     id="metadata3074">
    <rdf:RDF>
      <cc:Work
         rdf:about="">
        <dc:format>image/svg+xml</dc:format>
        <dc:type
           rdf:resource="http://purl.org/dc/dcmitype/StillImage" />
        <dc:title></dc:title>
      </cc:Work>
    </rdf:RDF>
  </metadata>
  <g
     inkscape:label="Layer 1"
     inkscape:groupmode="layer"
     id="layer1"
     transform="translate(-147.78759,-237.64143)">
    <path
       inkscape:connector-curvature="0"
       id="path40"
       style="fill:#00adee;fill-opacity:1;fill-rule:nonzero;stroke:none"
       d="m 294.91884,467.84263 c -49.15375,0 -71.1425,-24.1625 -71.1425,-42.27875 0,-9.29 6.85875,-15.79875 16.31125,-15.79875 21.035,0 15.59125,30.20375 54.83125,30.20375 20.0875,0 31.18375,-10.9075 31.18375,-22.07375 0,-6.71375 -3.31125,-14.15625 -16.54,-17.415 l -43.71625,-10.9175 c -35.21125,-8.82625 -41.60375,-27.86125 -41.60375,-45.7525 0,-37.15375 34.97875,-51.09875 67.82875,-51.09875 30.2525,0 65.92625,16.72125 65.92625,39.0075 0,9.55 -8.27,15.105 -17.71625,15.105 -17.9575,0 -14.64625,-24.84875 -50.805,-24.84875 -17.94875,0 -27.8925,8.1275 -27.8925,19.75625 0,11.60125 14.17625,15.31 26.4775,18.11625 l 32.36375,7.18125 c 35.4425,7.89125 44.4325,28.58625 44.4325,48.08375 0,30.19 -23.16875,52.73 -69.93875,52.73 m 135.50375,-59.655 c -0.0962,0.51625 -0.16625,1.03625 -0.26625,1.55125 l -0.49375,-2.95125 c 0.2675,0.46 0.4975,0.93875 0.76,1.4 1.50125,-8.23 2.2975,-16.65625 2.2975,-25.07875 0,-18.67625 -3.65875,-36.79875 -10.875,-53.85125 -6.975,-16.48 -16.94375,-31.2775 -29.65375,-43.98 -12.7025,-12.705 -27.5025,-22.68 -43.97625,-29.64875 -17.05125,-7.21625 -35.1775,-10.86875 -53.85125,-10.86875 -8.80125,0 -17.61375,0.8275 -26.19375,2.46875 -0.0225,0.005 -0.0437,0.007 -0.065,0.0138 0.4775,0.25375 0.96875,0.48 1.44125,0.745 l -2.9125,-0.455 c 0.4925,-0.095 0.98,-0.19125 1.47125,-0.29 -11.775,-6.26125 -25.0075,-9.60125 -38.41375,-9.60125 -21.87625,0 -42.45,8.51875 -57.91625,23.995 -15.46625,15.465 -23.9875,36.03875 -23.9875,57.9175 0,13.92375 3.57875,27.61125 10.30125,39.71 0.0875,-0.5025 0.1525,-1.00875 0.24375,-1.50625 l 0.50375,2.89625 c -0.265,-0.45375 -0.49,-0.93 -0.7475,-1.39 -1.3625,7.835 -2.08125,15.845 -2.08125,23.845 0,18.6775 3.65875,36.7975 10.8775,53.85625 6.96125,16.48125 16.94125,31.2725 29.64125,43.97625 12.71,12.705 27.5025,22.69 43.985,29.64125 17.055,7.23125 35.17875,10.88875 53.8525,10.88875 8.135,0 16.28,-0.73875 24.23625,-2.15 -0.465,-0.2625 -0.94625,-0.4975 -1.41125,-0.7725 l 2.94875,0.52 c -0.50875,0.0975 -1.02375,0.16 -1.5375,0.2525 12.25375,6.935 26.12625,10.61875 40.2925,10.61875 21.875,0 42.43625,-8.51125 57.90375,-23.9875 15.47625,-15.4625 23.9875,-36.03375 23.9875,-57.915 0,-13.97375 -3.6,-27.7075 -10.36125,-39.85" />
    <path
       style="fill:#ffffff;fill-opacity:1;stroke:#ffffff;stroke-width:0.71428573"
       d="m 138.64098,229.76456 c -12.98995,-0.9058 -27.86684,-4.54697 -36.78571,-9.00343 -10.316449,-5.15477 -18.59532,-12.86294 -22.642981,-21.08207 -2.13875,-4.34293 -2.357022,-5.38301 -2.357022,-11.23139 0,-5.68861 0.208887,-6.75406 1.779385,-9.07589 4.904426,-7.25074 15.490536,-9.16242 22.969158,-4.14787 1.70973,1.14641 4.71051,4.10485 6.66841,6.57431 6.44827,8.13309 12.87124,14.04188 17.74094,16.32068 11.09304,5.19106 27.12171,5.66759 37.88351,1.12628 4.43609,-1.87197 9.62574,-6.07175 11.54076,-9.33949 5.72519,-9.76928 2.88896,-19.83554 -6.93159,-24.60141 -2.9703,-1.44147 -13.37059,-4.39665 -30.49378,-8.66462 -27.12122,-6.76 -34.11918,-9.01043 -41.19539,-13.24778 C 92.175135,140.61246 85.105158,134.04867 82.842471,130.41819 74.537856,117.09345 74.874667,94.592122 83.581839,81.02317 86.4918,76.48839 94.318099,69.148428 99.563266,66.034853 115.1903,56.758511 140.46846,53.046345 161.05862,57.004092 c 22.49468,4.323823 40.0703,14.650552 46.19309,27.141199 6.26909,12.789098 0.76715,23.397649 -12.69524,24.478279 -7.09712,0.56969 -9.77981,-0.83713 -18.68746,-9.799803 -11.90226,-11.975793 -19.30499,-14.850023 -36.45019,-14.152382 -10.64227,0.433036 -15.26584,2.083021 -20.4977,7.314889 -3.03202,3.032015 -3.85174,4.403293 -4.5815,7.664232 -2.08058,9.297004 2.12342,15.089764 14.05662,19.368824 2.81181,1.00827 13.9011,3.7924 24.64286,6.18695 31.12875,6.9392 34.6412,8.09935 44.704,14.76548 12.73708,8.43772 18.88562,20.75075 18.83335,37.71562 -0.084,27.28103 -17.83391,45.2558 -50.07833,50.71282 -6.4498,1.09156 -21.32288,1.82 -27.85714,1.36436 z"
       id="path2983"
       inkscape:connector-curvature="0"
       transform="translate(147.78759,237.64143)" />
  </g>
</svg>
